<?xml version="1.0" encoding="UTF-8" standalone="no"?>
<!-- Created with Inkscape (http://www.inkscape.org/) -->

<svg
   xmlns:dc="http://purl.org/dc/elements/1.1/"
   xmlns:cc="http://creativecommons.org/ns#"
   xmlns:rdf="http://www.w3.org/1999/02/22-rdf-syntax-ns#"
   xmlns:svg="http://www.w3.org/2000/svg"
   xmlns="http://www.w3.org/2000/svg"
   xmlns:sodipodi="http://sodipodi.sourceforge.net/DTD/sodipodi-0.dtd"
   xmlns:inkscape="http://www.inkscape.org/namespaces/inkscape"
   width="81.293625mm"
   height="11.619135mm"
   viewBox="0 0 81.293625 11.619135"
   version="1.1"
   id="svg8"
   sodipodi:docname="title.svg"
   inkscape:version="0.92.1 r15371">
  <defs
     id="defs2">
    <filter
       inkscape:collect="always"
       style="color-interpolation-filters:sRGB"
       id="filter6128"
       x="-0.013199275"
       width="1.0263986"
       y="-0.1320725"
       height="1.264145">
      <feGaussianBlur
         inkscape:collect="always"
         stdDeviation="0.42573665"
         id="feGaussianBlur6130" />
    </filter>
  </defs>
  <sodipodi:namedview
     id="base"
     pagecolor="#ffffff"
     bordercolor="#666666"
     borderopacity="1.0"
     inkscape:pageopacity="0.0"
     inkscape:pageshadow="2"
     inkscape:zoom="7.9195959"
     inkscape:cx="146.46462"
     inkscape:cy="-5.882473"
     inkscape:document-units="mm"
     inkscape:current-layer="layer1"
     showgrid="false"
     inkscape:window-width="3840"
     inkscape:window-height="2110"
     inkscape:window-x="0"
     inkscape:window-y="25"
     inkscape:window-maximized="1" />
  <metadata
     id="metadata5">
    <rdf:RDF>
      <cc:Work
         rdf:about="">
        <dc:format>image/svg+xml</dc:format>
        <dc:type
           rdf:resource="http://purl.org/dc/dcmitype/StillImage" />
      </cc:Work>
    </rdf:RDF>
  </metadata>
  <g
     inkscape:label="Layer 1"
     inkscape:groupmode="layer"
     id="layer1"
     transform="translate(-39.913248,-83.030373)">
    <g
       aria-label="Comran Morshed"
       style="font-style:normal;font-weight:normal;font-size:10.58333302px;line-height:1.25;font-family:sans-serif;letter-spacing:0px;word-spacing:0px;fill:#000000;fill-opacity:1;stroke:none;stroke-width:0.26458332;filter:url(#filter6128)"
       id="text4705">
      <path
         d="m 47.802439,91.517523 q 0.02117,0 0.05821,0.02646 l 0.111125,0.116416 q -0.232834,0.232834 -0.502709,0.428625 -0.269875,0.1905 -0.592666,0.328084 -0.322792,0.137583 -0.709084,0.211666 -0.381,0.07937 -0.841375,0.07937 -0.756708,0 -1.397,-0.264583 -0.635,-0.269875 -1.095375,-0.762 -0.460375,-0.497417 -0.719666,-1.201208 -0.259292,-0.703792 -0.259292,-1.576917 0,-0.851958 0.259292,-1.550458 0.259291,-0.703792 0.73025,-1.201208 0.47625,-0.502709 1.132416,-0.777875 0.661459,-0.275167 1.455209,-0.275167 0.746125,0 1.322916,0.227542 0.576792,0.227541 1.074209,0.656166 l -0.07937,0.116417 q -0.02117,0.03704 -0.08467,0.03704 -0.03175,0 -0.111125,-0.05821 -0.07408,-0.05821 -0.201083,-0.142875 -0.121709,-0.08996 -0.301625,-0.1905 -0.174625,-0.105833 -0.41275,-0.1905 -0.238125,-0.08996 -0.53975,-0.148166 -0.301625,-0.05821 -0.66675,-0.05821 -0.719667,0 -1.322917,0.248709 -0.60325,0.248708 -1.037167,0.709083 -0.433916,0.460375 -0.677333,1.121833 -0.238125,0.656167 -0.238125,1.476375 0,0.836084 0.238125,1.497542 0.243417,0.656166 0.672042,1.116541 0.428625,0.455084 1.010708,0.6985 0.582083,0.243417 1.264708,0.243417 0.428625,0 0.767292,-0.05821 0.338667,-0.05821 0.619125,-0.174625 0.28575,-0.116417 0.523875,-0.28575 0.243417,-0.169334 0.481542,-0.386292 0.03704,-0.03704 0.06879,-0.03704 z"
         style="font-style:normal;font-variant:normal;font-weight:200;font-stretch:normal;font-family:Lato;-inkscape-font-specification:'Lato Ultra-Light';fill:#000000;fill-opacity:1;stroke-width:0.26458332"
         id="path4755"
         inkscape:connector-curvature="0" />
      <path
         d="m 51.193571,87.321232 q 0.555625,0 0.98425,0.195792 0.433916,0.1905 0.73025,0.545041 0.296333,0.34925 0.449791,0.846667 0.153459,0.497417 0.153459,1.105958 0,0.608542 -0.153459,1.105958 -0.153458,0.492125 -0.449791,0.841375 -0.296334,0.34925 -0.73025,0.53975 -0.428625,0.185209 -0.98425,0.185209 -0.555625,0 -0.989542,-0.185209 -0.428625,-0.1905 -0.724958,-0.53975 -0.296334,-0.34925 -0.449792,-0.841375 -0.153458,-0.497416 -0.153458,-1.105958 0,-0.608541 0.153458,-1.105958 0.153458,-0.497417 0.449792,-0.846667 0.296333,-0.354541 0.724958,-0.545041 0.433917,-0.195792 0.989542,-0.195792 z m 0,5.1435 q 0.508,0 0.889,-0.174625 0.381,-0.174625 0.635,-0.497417 0.259291,-0.322792 0.386291,-0.772583 0.127,-0.449792 0.127,-1.005417 0,-0.555625 -0.127,-1.010708 -0.127,-0.455083 -0.386291,-0.777875 -0.254,-0.328083 -0.635,-0.502708 -0.381,-0.179917 -0.889,-0.179917 -0.508,0 -0.889,0.179917 -0.381,0.174625 -0.640292,0.502708 -0.254,0.322792 -0.381,0.777875 -0.127,0.455083 -0.127,1.010708 0,0.555625 0.127,1.005417 0.127,0.449791 0.381,0.772583 0.259292,0.322792 0.640292,0.497417 0.381,0.174625 0.889,0.174625 z"
         style="font-style:normal;font-variant:normal;font-weight:200;font-stretch:normal;font-family:Lato;-inkscape-font-specification:'Lato Ultra-Light';fill:#000000;fill-opacity:1;stroke-width:0.26458332"
         id="path4757"
         inkscape:connector-curvature="0" />
      <path
         d="m 55.048384,92.623482 v -5.217583 h 0.132292 q 0.100542,0 0.105833,0.105833 l 0.03175,0.878417 q 0.306917,-0.486834 0.719667,-0.777875 0.418042,-0.291042 0.92075,-0.291042 0.597958,0 0.947208,0.359833 0.34925,0.359834 0.455084,1.010709 0.07937,-0.34925 0.243416,-0.60325 0.169334,-0.259292 0.391584,-0.428625 0.22225,-0.174625 0.486833,-0.254 0.264583,-0.08467 0.545042,-0.08467 0.375708,0 0.677333,0.132292 0.306917,0.127 0.518583,0.375708 0.211667,0.248708 0.322792,0.613833 0.116417,0.365125 0.116417,0.841375 v 3.339042 H 61.382509 V 89.28444 q 0,-0.846666 -0.365125,-1.291166 -0.359833,-0.449792 -1.031875,-0.449792 -0.296333,0 -0.5715,0.111125 -0.269875,0.105833 -0.481541,0.328083 -0.206375,0.216959 -0.333375,0.545042 -0.127,0.322792 -0.127,0.756708 v 3.339042 H 58.191634 V 89.28444 q 0,-0.830791 -0.328083,-1.285875 -0.328083,-0.455083 -0.963083,-0.455083 -0.47625,0 -0.873125,0.296333 -0.396875,0.296334 -0.6985,0.814917 v 3.96875 z"
         style="font-style:normal;font-variant:normal;font-weight:200;font-stretch:normal;font-family:Lato;-inkscape-font-specification:'Lato Ultra-Light';fill:#000000;fill-opacity:1;stroke-width:0.26458332"
         id="path4759"
         inkscape:connector-curvature="0" />
      <path
         d="m 63.461307,92.623482 v -5.217583 h 0.127 q 0.105834,0 0.111125,0.116416 l 0.03175,1.285875 q 0.227542,-0.709083 0.635,-1.095375 0.41275,-0.391583 1.0795,-0.391583 0.153459,0 0.312209,0.02646 0.164041,0.02117 0.291041,0.09525 l -0.03175,0.164042 q -0.02117,0.05821 -0.07408,0.05821 -0.05821,0 -0.179917,-0.03704 -0.116416,-0.04233 -0.34925,-0.04233 -0.333375,0 -0.587375,0.105834 -0.254,0.100541 -0.455083,0.306916 -0.201083,0.201084 -0.354542,0.502709 -0.148166,0.301625 -0.275166,0.703791 v 3.418417 z"
         style="font-style:normal;font-variant:normal;font-weight:200;font-stretch:normal;font-family:Lato;-inkscape-font-specification:'Lato Ultra-Light';fill:#000000;fill-opacity:1;stroke-width:0.26458332"
         id="path4761"
         inkscape:connector-curvature="0" />
      <path
         d="m 70.165187,92.623482 q -0.105834,0 -0.121709,-0.111125 l -0.05292,-0.767292 q -0.216959,0.22225 -0.439209,0.402167 -0.216958,0.174625 -0.460375,0.301625 -0.238125,0.121708 -0.518583,0.1905 -0.280458,0.06879 -0.619125,0.06879 -0.248708,0 -0.492125,-0.07408 -0.243416,-0.07408 -0.439208,-0.232833 -0.195792,-0.15875 -0.3175,-0.407459 -0.116417,-0.254 -0.116417,-0.608541 0,-0.343959 0.195792,-0.624417 0.201083,-0.280458 0.619125,-0.481542 0.418042,-0.206375 1.058333,-0.322791 0.640292,-0.121708 1.524,-0.142875 v -0.619125 q 0,-0.783167 -0.338667,-1.217083 -0.338666,-0.433917 -1.005416,-0.433917 -0.396875,0 -0.682625,0.116417 -0.28575,0.111125 -0.47625,0.254 -0.1905,0.137583 -0.306917,0.254 -0.111125,0.111125 -0.169333,0.111125 -0.05292,0 -0.09525,-0.05821 l -0.04763,-0.07408 q 0.391583,-0.402167 0.820208,-0.613833 0.428625,-0.211667 0.978958,-0.211667 0.407459,0 0.709084,0.132292 0.301625,0.127 0.497416,0.370416 0.201084,0.243417 0.296334,0.592667 0.09525,0.343958 0.09525,0.777875 v 3.429 z m -2.159,-0.121709 q 0.338666,0 0.619125,-0.07408 0.280458,-0.07937 0.518583,-0.211667 0.238125,-0.132291 0.4445,-0.306916 0.206375,-0.179917 0.396875,-0.381 v -1.51342 q -1.598083,0.05292 -2.365375,0.396875 -0.762,0.343958 -0.762,0.963083 0,0.291042 0.09525,0.502709 0.100542,0.211666 0.259292,0.354541 0.164042,0.137584 0.370417,0.206375 0.206375,0.0635 0.423333,0.0635 z"
         style="font-style:normal;font-variant:normal;font-weight:200;font-stretch:normal;font-family:Lato;-inkscape-font-specification:'Lato Ultra-Light';fill:#000000;fill-opacity:1;stroke-width:0.26458332"
         id="path4763"
         inkscape:connector-curvature="0" />
      <path
         d="m 72.060266,92.623482 v -5.217583 h 0.132292 q 0.100542,0 0.105833,0.105833 l 0.03175,0.904875 q 0.365125,-0.502708 0.867834,-0.799042 0.502708,-0.296333 1.105958,-0.296333 0.433917,0 0.756708,0.137583 0.328083,0.132292 0.53975,0.386292 0.216958,0.248708 0.322792,0.613833 0.111125,0.365125 0.111125,0.8255 v 3.339042 H 75.753849 V 89.28444 q 0,-0.407458 -0.08996,-0.73025 -0.08996,-0.322791 -0.280458,-0.545041 -0.185209,-0.227542 -0.465667,-0.343959 -0.280458,-0.121708 -0.661458,-0.121708 -0.5715,0 -1.058333,0.301625 -0.486834,0.296333 -0.85725,0.8255 v 3.952875 z"
         style="font-style:normal;font-variant:normal;font-weight:200;font-stretch:normal;font-family:Lato;-inkscape-font-specification:'Lato Ultra-Light';fill:#000000;fill-opacity:1;stroke-width:0.26458332"
         id="path4765"
         inkscape:connector-curvature="0" />
      <path
         d="m 84.672127,90.930148 q 0.02117,-0.04762 0.04233,-0.09525 0.02117,-0.05292 0.04762,-0.105833 l 3.132667,-5.476875 q 0.02646,-0.04233 0.05292,-0.05292 0.03175,-0.01588 0.07408,-0.01588 h 0.174625 v 7.440083 h -0.254 V 85.81839 q 0,-0.03704 0,-0.07937 0,-0.04233 0.0053,-0.08467 l -3.122083,5.471583 q -0.05292,0.08996 -0.127,0.08996 h -0.05292 q -0.07937,0 -0.132291,-0.08996 l -3.217333,-5.482166 q 0.0053,0.04233 0.0053,0.08996 0.0053,0.04233 0.0053,0.08467 v 6.805083 h -0.254 v -7.440083 h 0.174625 q 0.04233,0 0.06879,0.01588 0.03175,0.01058 0.05821,0.05292 l 3.227916,5.482167 z"
         style="font-style:normal;font-variant:normal;font-weight:200;font-stretch:normal;font-family:Lato;-inkscape-font-specification:'Lato Ultra-Light';fill:#000000;fill-opacity:1;stroke-width:0.26458332"
         id="path4767"
         inkscape:connector-curvature="0" />
      <path
         d="m 92.141975,87.321232 q 0.555625,0 0.98425,0.195792 0.433916,0.1905 0.73025,0.545041 0.296333,0.34925 0.449791,0.846667 0.153458,0.497417 0.153458,1.105958 0,0.608542 -0.153458,1.105958 -0.153458,0.492125 -0.449791,0.841375 -0.296334,0.34925 -0.73025,0.53975 -0.428625,0.185209 -0.98425,0.185209 -0.555625,0 -0.989542,-0.185209 -0.428625,-0.1905 -0.724958,-0.53975 -0.296334,-0.34925 -0.449792,-0.841375 -0.153458,-0.497416 -0.153458,-1.105958 0,-0.608541 0.153458,-1.105958 0.153458,-0.497417 0.449792,-0.846667 0.296333,-0.354541 0.724958,-0.545041 0.433917,-0.195792 0.989542,-0.195792 z m 0,5.1435 q 0.508,0 0.889,-0.174625 0.381,-0.174625 0.635,-0.497417 0.259291,-0.322792 0.386291,-0.772583 0.127,-0.449792 0.127,-1.005417 0,-0.555625 -0.127,-1.010708 -0.127,-0.455083 -0.386291,-0.777875 -0.254,-0.328083 -0.635,-0.502708 -0.381,-0.179917 -0.889,-0.179917 -0.508,0 -0.889,0.179917 -0.381,0.174625 -0.640292,0.502708 -0.254,0.322792 -0.381,0.777875 -0.127,0.455083 -0.127,1.010708 0,0.555625 0.127,1.005417 0.127,0.449791 0.381,0.772583 0.259292,0.322792 0.640292,0.497417 0.381,0.174625 0.889,0.174625 z"
         style="font-style:normal;font-variant:normal;font-weight:200;font-stretch:normal;font-family:Lato;-inkscape-font-specification:'Lato Ultra-Light';fill:#000000;fill-opacity:1;stroke-width:0.26458332"
         id="path4769"
         inkscape:connector-curvature="0" />
      <path
         d="m 95.99679,92.623482 v -5.217583 h 0.127 q 0.105833,0 0.111125,0.116416 l 0.03175,1.285875 q 0.227541,-0.709083 0.635,-1.095375 0.41275,-0.391583 1.0795,-0.391583 0.153458,0 0.312208,0.02646 0.164042,0.02117 0.291042,0.09525 l -0.03175,0.164042 q -0.02117,0.05821 -0.07408,0.05821 -0.05821,0 -0.179916,-0.03704 -0.116417,-0.04233 -0.34925,-0.04233 -0.333375,0 -0.587375,0.105834 -0.254,0.100541 -0.455084,0.306916 -0.201083,0.201084 -0.354541,0.502709 -0.148167,0.301625 -0.275167,0.703791 v 3.418417 z"
         style="font-style:normal;font-variant:normal;font-weight:200;font-stretch:normal;font-family:Lato;-inkscape-font-specification:'Lato Ultra-Light';fill:#000000;fill-opacity:1;stroke-width:0.26458332"
         id="path4771"
         inkscape:connector-curvature="0" />
      <path
         d="m 102.38697,87.940357 q -0.0265,0.04762 -0.0794,0.04762 -0.0476,0 -0.13759,-0.06879 -0.0847,-0.07408 -0.23812,-0.153458 -0.15346,-0.08467 -0.38629,-0.153458 -0.22755,-0.07408 -0.56621,-0.07408 -0.31221,0 -0.5715,0.09525 -0.254,0.08996 -0.439211,0.243417 -0.185208,0.153458 -0.28575,0.359833 -0.100542,0.206375 -0.100542,0.428625 0,0.264584 0.127,0.4445 0.132292,0.179917 0.343963,0.306917 0.21166,0.121708 0.48154,0.211667 0.26987,0.08467 0.55033,0.174625 0.28046,0.08467 0.55033,0.185208 0.26988,0.100541 0.48155,0.248708 0.21166,0.148167 0.33866,0.365125 0.13229,0.216958 0.13229,0.534458 0,0.328084 -0.11641,0.613834 -0.11642,0.28575 -0.34396,0.502708 -0.22225,0.211667 -0.55033,0.333375 -0.3228,0.121708 -0.74084,0.121708 -0.28046,0 -0.508,-0.04762 -0.22754,-0.04233 -0.423331,-0.121708 -0.195792,-0.08467 -0.365125,-0.201083 -0.169333,-0.116417 -0.328083,-0.259292 l 0.06879,-0.08996 q 0.02117,-0.02646 0.03704,-0.03704 0.02117,-0.01588 0.0635,-0.01588 0.05292,0 0.148167,0.08996 0.100541,0.08467 0.264583,0.1905 0.169333,0.105834 0.423339,0.195792 0.254,0.08467 0.62441,0.08467 0.36513,0 0.6403,-0.100542 0.28045,-0.105833 0.46566,-0.28575 0.1905,-0.179917 0.28575,-0.418042 0.0953,-0.243416 0.0953,-0.513291 0,-0.28575 -0.13229,-0.47625 -0.127,-0.1905 -0.33867,-0.3175 -0.21166,-0.132292 -0.48154,-0.22225 -0.26987,-0.08996 -0.55033,-0.174625 -0.28046,-0.08467 -0.55033,-0.179917 -0.26988,-0.100541 -0.481549,-0.243416 -0.211667,-0.148167 -0.343958,-0.359834 -0.127,-0.211666 -0.127,-0.529166 0,-0.264584 0.116416,-0.508 0.121709,-0.248709 0.338667,-0.433917 0.216958,-0.1905 0.518584,-0.301625 0.30692,-0.111125 0.68263,-0.111125 0.45508,0 0.80433,0.127 0.34925,0.127 0.66146,0.402167 z"
         style="font-style:normal;font-variant:normal;font-weight:200;font-stretch:normal;font-family:Lato;-inkscape-font-specification:'Lato Ultra-Light';fill:#000000;fill-opacity:1;stroke-width:0.26458332"
         id="path4773"
         inkscape:connector-curvature="0" />
      <path
         d="m 104.07898,92.623482 v -7.65175 h 0.28046 v 3.429 q 0.36512,-0.492125 0.86783,-0.783167 0.50271,-0.296333 1.09538,-0.296333 0.43391,0 0.75671,0.137583 0.32808,0.132292 0.53975,0.386292 0.21695,0.248708 0.32279,0.613833 0.11112,0.365125 0.11112,0.8255 v 3.339042 h -0.28046 V 89.28444 q 0,-0.407458 -0.09,-0.73025 -0.09,-0.322791 -0.28046,-0.545041 -0.18521,-0.227542 -0.46567,-0.343959 -0.28046,-0.121708 -0.66146,-0.121708 -0.5715,0 -1.05833,0.301625 -0.48683,0.296333 -0.85725,0.8255 v 3.952875 z"
         style="font-style:normal;font-variant:normal;font-weight:200;font-stretch:normal;font-family:Lato;-inkscape-font-specification:'Lato Ultra-Light';fill:#000000;fill-opacity:1;stroke-width:0.26458332"
         id="path4775"
         inkscape:connector-curvature="0" />
      <path
         d="m 111.85111,87.321232 q 0.42334,0 0.78846,0.148167 0.37042,0.148166 0.64559,0.439208 0.27516,0.28575 0.42862,0.709083 0.15875,0.423334 0.15875,0.968375 0,0.111125 -0.0952,0.111125 h -3.95287 q -0.005,0.05292 -0.005,0.105834 0,0.05292 0,0.105833 0,0.624416 0.14817,1.100666 0.14817,0.47625 0.41804,0.799042 0.26988,0.322792 0.65088,0.492125 0.38629,0.164042 0.85725,0.164042 0.41804,0 0.72496,-0.08996 0.30691,-0.09525 0.51329,-0.206375 0.20637,-0.111125 0.3175,-0.201083 0.11641,-0.09525 0.14816,-0.09525 0.0423,0 0.0688,0.03175 l 0.0688,0.07937 q -0.10584,0.132292 -0.29634,0.259292 -0.1905,0.127 -0.4392,0.227541 -0.24342,0.09525 -0.53446,0.153459 -0.28575,0.0635 -0.58738,0.0635 -0.53446,0 -0.96837,-0.185209 -0.42863,-0.1905 -0.73554,-0.545041 -0.30163,-0.354542 -0.46567,-0.867834 -0.16404,-0.518583 -0.16404,-1.180041 0,-0.5715 0.15346,-1.042458 0.15875,-0.47625 0.45508,-0.820209 0.29633,-0.343958 0.72496,-0.534458 0.42862,-0.1905 0.97366,-0.1905 z m 0.005,0.211667 q -0.4445,0 -0.79905,0.142875 -0.34925,0.142875 -0.60325,0.402166 -0.254,0.259292 -0.41275,0.624417 -0.15345,0.365125 -0.20108,0.809625 h 3.77825 q 0,-0.470958 -0.13758,-0.836083 -0.13229,-0.370417 -0.37042,-0.624417 -0.23283,-0.254 -0.55562,-0.386292 -0.3228,-0.132291 -0.6985,-0.132291 z"
         style="font-style:normal;font-variant:normal;font-weight:200;font-stretch:normal;font-family:Lato;-inkscape-font-specification:'Lato Ultra-Light';fill:#000000;fill-opacity:1;stroke-width:0.26458332"
         id="path4777"
         inkscape:connector-curvature="0" />
      <path
         d="m 119.13857,92.623482 q -0.10583,0 -0.11112,-0.105834 l -0.0371,-0.931333 q -0.34925,0.513292 -0.83608,0.809625 -0.48154,0.291042 -1.06362,0.291042 -0.99484,0 -1.5293,-0.656167 -0.53445,-0.656167 -0.53445,-2.005542 0,-0.571499 0.14287,-1.063624 0.14817,-0.492125 0.43392,-0.85725 0.29104,-0.365125 0.71437,-0.5715 0.42863,-0.211667 0.98954,-0.211667 1.09009,0 1.67746,0.85725 v -3.20675 h 0.28046 v 7.65175 z m -1.98967,-0.15875 q 0.55034,0 1.016,-0.301625 0.47096,-0.301625 0.82021,-0.830792 v -2.868083 q -0.32808,-0.508 -0.72496,-0.714375 -0.39687,-0.211667 -0.91016,-0.211667 -0.51329,0 -0.89429,0.1905 -0.381,0.185209 -0.635,0.518584 -0.254,0.333375 -0.381,0.788458 -0.127,0.455083 -0.127,0.989541 0,1.243542 0.46566,1.8415 0.47096,0.597959 1.37054,0.597959 z"
         style="font-style:normal;font-variant:normal;font-weight:200;font-stretch:normal;font-family:Lato;-inkscape-font-specification:'Lato Ultra-Light';fill:#000000;fill-opacity:1;stroke-width:0.26458332"
         id="path4779"
         inkscape:connector-curvature="0" />
    </g>
    <g
       aria-label="Comran Morshed"
       style="font-style:normal;font-weight:normal;font-size:10.58333302px;line-height:1.25;font-family:sans-serif;letter-spacing:0px;word-spacing:0px;fill:#ffffff;fill-opacity:1;stroke:none;stroke-width:0.26458332"
       id="text4705-3">
      <path
         d="m 47.802439,91.517523 q 0.02117,0 0.05821,0.02646 l 0.111125,0.116416 q -0.232834,0.232834 -0.502709,0.428625 -0.269875,0.1905 -0.592666,0.328084 -0.322792,0.137583 -0.709084,0.211666 -0.381,0.07937 -0.841375,0.07937 -0.756708,0 -1.397,-0.264583 -0.635,-0.269875 -1.095375,-0.762 -0.460375,-0.497417 -0.719666,-1.201208 -0.259292,-0.703792 -0.259292,-1.576917 0,-0.851958 0.259292,-1.550458 0.259291,-0.703792 0.73025,-1.201208 0.47625,-0.502709 1.132416,-0.777875 0.661459,-0.275167 1.455209,-0.275167 0.746125,0 1.322916,0.227542 0.576792,0.227541 1.074209,0.656166 l -0.07937,0.116417 q -0.02117,0.03704 -0.08467,0.03704 -0.03175,0 -0.111125,-0.05821 -0.07408,-0.05821 -0.201083,-0.142875 -0.121709,-0.08996 -0.301625,-0.1905 -0.174625,-0.105833 -0.41275,-0.1905 -0.238125,-0.08996 -0.53975,-0.148166 -0.301625,-0.05821 -0.66675,-0.05821 -0.719667,0 -1.322917,0.248709 -0.60325,0.248708 -1.037167,0.709083 -0.433916,0.460375 -0.677333,1.121833 -0.238125,0.656167 -0.238125,1.476375 0,0.836084 0.238125,1.497542 0.243417,0.656166 0.672042,1.116541 0.428625,0.455084 1.010708,0.6985 0.582083,0.243417 1.264708,0.243417 0.428625,0 0.767292,-0.05821 0.338667,-0.05821 0.619125,-0.174625 0.28575,-0.116417 0.523875,-0.28575 0.243417,-0.169334 0.481542,-0.386292 0.03704,-0.03704 0.06879,-0.03704 z"
         style="font-style:normal;font-variant:normal;font-weight:200;font-stretch:normal;font-family:Lato;-inkscape-font-specification:'Lato Ultra-Light';fill:#ffffff;fill-opacity:1;stroke-width:0.26458332"
         id="path4755-2"
         inkscape:connector-curvature="0" />
      <path
         d="m 51.193571,87.321232 q 0.555625,0 0.98425,0.195792 0.433916,0.1905 0.73025,0.545041 0.296333,0.34925 0.449791,0.846667 0.153459,0.497417 0.153459,1.105958 0,0.608542 -0.153459,1.105958 -0.153458,0.492125 -0.449791,0.841375 -0.296334,0.34925 -0.73025,0.53975 -0.428625,0.185209 -0.98425,0.185209 -0.555625,0 -0.989542,-0.185209 -0.428625,-0.1905 -0.724958,-0.53975 -0.296334,-0.34925 -0.449792,-0.841375 -0.153458,-0.497416 -0.153458,-1.105958 0,-0.608541 0.153458,-1.105958 0.153458,-0.497417 0.449792,-0.846667 0.296333,-0.354541 0.724958,-0.545041 0.433917,-0.195792 0.989542,-0.195792 z m 0,5.1435 q 0.508,0 0.889,-0.174625 0.381,-0.174625 0.635,-0.497417 0.259291,-0.322792 0.386291,-0.772583 0.127,-0.449792 0.127,-1.005417 0,-0.555625 -0.127,-1.010708 -0.127,-0.455083 -0.386291,-0.777875 -0.254,-0.328083 -0.635,-0.502708 -0.381,-0.179917 -0.889,-0.179917 -0.508,0 -0.889,0.179917 -0.381,0.174625 -0.640292,0.502708 -0.254,0.322792 -0.381,0.777875 -0.127,0.455083 -0.127,1.010708 0,0.555625 0.127,1.005417 0.127,0.449791 0.381,0.772583 0.259292,0.322792 0.640292,0.497417 0.381,0.174625 0.889,0.174625 z"
         style="font-style:normal;font-variant:normal;font-weight:200;font-stretch:normal;font-family:Lato;-inkscape-font-specification:'Lato Ultra-Light';fill:#ffffff;fill-opacity:1;stroke-width:0.26458332"
         id="path4757-1"
         inkscape:connector-curvature="0" />
      <path
         d="m 55.048384,92.623482 v -5.217583 h 0.132292 q 0.100542,0 0.105833,0.105833 l 0.03175,0.878417 q 0.306917,-0.486834 0.719667,-0.777875 0.418042,-0.291042 0.92075,-0.291042 0.597958,0 0.947208,0.359833 0.34925,0.359834 0.455084,1.010709 0.07937,-0.34925 0.243416,-0.60325 0.169334,-0.259292 0.391584,-0.428625 0.22225,-0.174625 0.486833,-0.254 0.264583,-0.08467 0.545042,-0.08467 0.375708,0 0.677333,0.132292 0.306917,0.127 0.518583,0.375708 0.211667,0.248708 0.322792,0.613833 0.116417,0.365125 0.116417,0.841375 v 3.339042 H 61.382509 V 89.28444 q 0,-0.846666 -0.365125,-1.291166 -0.359833,-0.449792 -1.031875,-0.449792 -0.296333,0 -0.5715,0.111125 -0.269875,0.105833 -0.481541,0.328083 -0.206375,0.216959 -0.333375,0.545042 -0.127,0.322792 -0.127,0.756708 v 3.339042 H 58.191634 V 89.28444 q 0,-0.830791 -0.328083,-1.285875 -0.328083,-0.455083 -0.963083,-0.455083 -0.47625,0 -0.873125,0.296333 -0.396875,0.296334 -0.6985,0.814917 v 3.96875 z"
         style="font-style:normal;font-variant:normal;font-weight:200;font-stretch:normal;font-family:Lato;-inkscape-font-specification:'Lato Ultra-Light';fill:#ffffff;fill-opacity:1;stroke-width:0.26458332"
         id="path4759-7"
         inkscape:connector-curvature="0" />
      <path
         d="m 63.461307,92.623482 v -5.217583 h 0.127 q 0.105834,0 0.111125,0.116416 l 0.03175,1.285875 q 0.227542,-0.709083 0.635,-1.095375 0.41275,-0.391583 1.0795,-0.391583 0.153459,0 0.312209,0.02646 0.164041,0.02117 0.291041,0.09525 l -0.03175,0.164042 q -0.02117,0.05821 -0.07408,0.05821 -0.05821,0 -0.179917,-0.03704 -0.116416,-0.04233 -0.34925,-0.04233 -0.333375,0 -0.587375,0.105834 -0.254,0.100541 -0.455083,0.306916 -0.201083,0.201084 -0.354542,0.502709 -0.148166,0.301625 -0.275166,0.703791 v 3.418417 z"
         style="font-style:normal;font-variant:normal;font-weight:200;font-stretch:normal;font-family:Lato;-inkscape-font-specification:'Lato Ultra-Light';fill:#ffffff;fill-opacity:1;stroke-width:0.26458332"
         id="path4761-5"
         inkscape:connector-curvature="0" />
      <path
         d="m 70.165187,92.623482 q -0.105834,0 -0.121709,-0.111125 l -0.05292,-0.767292 q -0.216959,0.22225 -0.439209,0.402167 -0.216958,0.174625 -0.460375,0.301625 -0.238125,0.121708 -0.518583,0.1905 -0.280458,0.06879 -0.619125,0.06879 -0.248708,0 -0.492125,-0.07408 -0.243416,-0.07408 -0.439208,-0.232833 -0.195792,-0.15875 -0.3175,-0.407459 -0.116417,-0.254 -0.116417,-0.608541 0,-0.343959 0.195792,-0.624417 0.201083,-0.280458 0.619125,-0.481542 0.418042,-0.206375 1.058333,-0.322791 0.640292,-0.121708 1.524,-0.142875 v -0.619125 q 0,-0.783167 -0.338667,-1.217083 -0.338666,-0.433917 -1.005416,-0.433917 -0.396875,0 -0.682625,0.116417 -0.28575,0.111125 -0.47625,0.254 -0.1905,0.137583 -0.306917,0.254 -0.111125,0.111125 -0.169333,0.111125 -0.05292,0 -0.09525,-0.05821 l -0.04763,-0.07408 q 0.391583,-0.402167 0.820208,-0.613833 0.428625,-0.211667 0.978958,-0.211667 0.407459,0 0.709084,0.132292 0.301625,0.127 0.497416,0.370416 0.201084,0.243417 0.296334,0.592667 0.09525,0.343958 0.09525,0.777875 v 3.429 z m -2.159,-0.121709 q 0.338666,0 0.619125,-0.07408 0.280458,-0.07937 0.518583,-0.211667 0.238125,-0.132291 0.4445,-0.306916 0.206375,-0.179917 0.396875,-0.381 v -1.51342 q -1.598083,0.05292 -2.365375,0.396875 -0.762,0.343958 -0.762,0.963083 0,0.291042 0.09525,0.502709 0.100542,0.211666 0.259292,0.354541 0.164042,0.137584 0.370417,0.206375 0.206375,0.0635 0.423333,0.0635 z"
         style="font-style:normal;font-variant:normal;font-weight:200;font-stretch:normal;font-family:Lato;-inkscape-font-specification:'Lato Ultra-Light';fill:#ffffff;fill-opacity:1;stroke-width:0.26458332"
         id="path4763-6"
         inkscape:connector-curvature="0" />
      <path
         d="m 72.060266,92.623482 v -5.217583 h 0.132292 q 0.100542,0 0.105833,0.105833 l 0.03175,0.904875 q 0.365125,-0.502708 0.867834,-0.799042 0.502708,-0.296333 1.105958,-0.296333 0.433917,0 0.756708,0.137583 0.328083,0.132292 0.53975,0.386292 0.216958,0.248708 0.322792,0.613833 0.111125,0.365125 0.111125,0.8255 v 3.339042 H 75.753849 V 89.28444 q 0,-0.407458 -0.08996,-0.73025 -0.08996,-0.322791 -0.280458,-0.545041 -0.185209,-0.227542 -0.465667,-0.343959 -0.280458,-0.121708 -0.661458,-0.121708 -0.5715,0 -1.058333,0.301625 -0.486834,0.296333 -0.85725,0.8255 v 3.952875 z"
         style="font-style:normal;font-variant:normal;font-weight:200;font-stretch:normal;font-family:Lato;-inkscape-font-specification:'Lato Ultra-Light';fill:#ffffff;fill-opacity:1;stroke-width:0.26458332"
         id="path4765-5"
         inkscape:connector-curvature="0" />
      <path
         d="m 84.672127,90.930148 q 0.02117,-0.04762 0.04233,-0.09525 0.02117,-0.05292 0.04762,-0.105833 l 3.132667,-5.476875 q 0.02646,-0.04233 0.05292,-0.05292 0.03175,-0.01588 0.07408,-0.01588 h 0.174625 v 7.440083 h -0.254 V 85.81839 q 0,-0.03704 0,-0.07937 0,-0.04233 0.0053,-0.08467 l -3.122083,5.471583 q -0.05292,0.08996 -0.127,0.08996 h -0.05292 q -0.07937,0 -0.132291,-0.08996 l -3.217333,-5.482166 q 0.0053,0.04233 0.0053,0.08996 0.0053,0.04233 0.0053,0.08467 v 6.805083 h -0.254 v -7.440083 h 0.174625 q 0.04233,0 0.06879,0.01588 0.03175,0.01058 0.05821,0.05292 l 3.227916,5.482167 z"
         style="font-style:normal;font-variant:normal;font-weight:200;font-stretch:normal;font-family:Lato;-inkscape-font-specification:'Lato Ultra-Light';fill:#ffffff;fill-opacity:1;stroke-width:0.26458332"
         id="path4767-4"
         inkscape:connector-curvature="0" />
      <path
         d="m 92.141975,87.321232 q 0.555625,0 0.98425,0.195792 0.433916,0.1905 0.73025,0.545041 0.296333,0.34925 0.449791,0.846667 0.153458,0.497417 0.153458,1.105958 0,0.608542 -0.153458,1.105958 -0.153458,0.492125 -0.449791,0.841375 -0.296334,0.34925 -0.73025,0.53975 -0.428625,0.185209 -0.98425,0.185209 -0.555625,0 -0.989542,-0.185209 -0.428625,-0.1905 -0.724958,-0.53975 -0.296334,-0.34925 -0.449792,-0.841375 -0.153458,-0.497416 -0.153458,-1.105958 0,-0.608541 0.153458,-1.105958 0.153458,-0.497417 0.449792,-0.846667 0.296333,-0.354541 0.724958,-0.545041 0.433917,-0.195792 0.989542,-0.195792 z m 0,5.1435 q 0.508,0 0.889,-0.174625 0.381,-0.174625 0.635,-0.497417 0.259291,-0.322792 0.386291,-0.772583 0.127,-0.449792 0.127,-1.005417 0,-0.555625 -0.127,-1.010708 -0.127,-0.455083 -0.386291,-0.777875 -0.254,-0.328083 -0.635,-0.502708 -0.381,-0.179917 -0.889,-0.179917 -0.508,0 -0.889,0.179917 -0.381,0.174625 -0.640292,0.502708 -0.254,0.322792 -0.381,0.777875 -0.127,0.455083 -0.127,1.010708 0,0.555625 0.127,1.005417 0.127,0.449791 0.381,0.772583 0.259292,0.322792 0.640292,0.497417 0.381,0.174625 0.889,0.174625 z"
         style="font-style:normal;font-variant:normal;font-weight:200;font-stretch:normal;font-family:Lato;-inkscape-font-specification:'Lato Ultra-Light';fill:#ffffff;fill-opacity:1;stroke-width:0.26458332"
         id="path4769-2"
         inkscape:connector-curvature="0" />
      <path
         d="m 95.99679,92.623482 v -5.217583 h 0.127 q 0.105833,0 0.111125,0.116416 l 0.03175,1.285875 q 0.227541,-0.709083 0.635,-1.095375 0.41275,-0.391583 1.0795,-0.391583 0.153458,0 0.312208,0.02646 0.164042,0.02117 0.291042,0.09525 l -0.03175,0.164042 q -0.02117,0.05821 -0.07408,0.05821 -0.05821,0 -0.179916,-0.03704 -0.116417,-0.04233 -0.34925,-0.04233 -0.333375,0 -0.587375,0.105834 -0.254,0.100541 -0.455084,0.306916 -0.201083,0.201084 -0.354541,0.502709 -0.148167,0.301625 -0.275167,0.703791 v 3.418417 z"
         style="font-style:normal;font-variant:normal;font-weight:200;font-stretch:normal;font-family:Lato;-inkscape-font-specification:'Lato Ultra-Light';fill:#ffffff;fill-opacity:1;stroke-width:0.26458332"
         id="path4771-2"
         inkscape:connector-curvature="0" />
      <path
         d="m 102.38697,87.940357 q -0.0265,0.04762 -0.0794,0.04762 -0.0476,0 -0.13759,-0.06879 -0.0847,-0.07408 -0.23812,-0.153458 -0.15346,-0.08467 -0.38629,-0.153458 -0.22755,-0.07408 -0.56621,-0.07408 -0.31221,0 -0.5715,0.09525 -0.254,0.08996 -0.439211,0.243417 -0.185208,0.153458 -0.28575,0.359833 -0.100542,0.206375 -0.100542,0.428625 0,0.264584 0.127,0.4445 0.132292,0.179917 0.343963,0.306917 0.21166,0.121708 0.48154,0.211667 0.26987,0.08467 0.55033,0.174625 0.28046,0.08467 0.55033,0.185208 0.26988,0.100541 0.48155,0.248708 0.21166,0.148167 0.33866,0.365125 0.13229,0.216958 0.13229,0.534458 0,0.328084 -0.11641,0.613834 -0.11642,0.28575 -0.34396,0.502708 -0.22225,0.211667 -0.55033,0.333375 -0.3228,0.121708 -0.74084,0.121708 -0.28046,0 -0.508,-0.04762 -0.22754,-0.04233 -0.423331,-0.121708 -0.195792,-0.08467 -0.365125,-0.201083 -0.169333,-0.116417 -0.328083,-0.259292 l 0.06879,-0.08996 q 0.02117,-0.02646 0.03704,-0.03704 0.02117,-0.01588 0.0635,-0.01588 0.05292,0 0.148167,0.08996 0.100541,0.08467 0.264583,0.1905 0.169333,0.105834 0.423339,0.195792 0.254,0.08467 0.62441,0.08467 0.36513,0 0.6403,-0.100542 0.28045,-0.105833 0.46566,-0.28575 0.1905,-0.179917 0.28575,-0.418042 0.0953,-0.243416 0.0953,-0.513291 0,-0.28575 -0.13229,-0.47625 -0.127,-0.1905 -0.33867,-0.3175 -0.21166,-0.132292 -0.48154,-0.22225 -0.26987,-0.08996 -0.55033,-0.174625 -0.28046,-0.08467 -0.55033,-0.179917 -0.26988,-0.100541 -0.481549,-0.243416 -0.211667,-0.148167 -0.343958,-0.359834 -0.127,-0.211666 -0.127,-0.529166 0,-0.264584 0.116416,-0.508 0.121709,-0.248709 0.338667,-0.433917 0.216958,-0.1905 0.518584,-0.301625 0.30692,-0.111125 0.68263,-0.111125 0.45508,0 0.80433,0.127 0.34925,0.127 0.66146,0.402167 z"
         style="font-style:normal;font-variant:normal;font-weight:200;font-stretch:normal;font-family:Lato;-inkscape-font-specification:'Lato Ultra-Light';fill:#ffffff;fill-opacity:1;stroke-width:0.26458332"
         id="path4773-1"
         inkscape:connector-curvature="0" />
      <path
         d="m 104.07898,92.623482 v -7.65175 h 0.28046 v 3.429 q 0.36512,-0.492125 0.86783,-0.783167 0.50271,-0.296333 1.09538,-0.296333 0.43391,0 0.75671,0.137583 0.32808,0.132292 0.53975,0.386292 0.21695,0.248708 0.32279,0.613833 0.11112,0.365125 0.11112,0.8255 v 3.339042 h -0.28046 V 89.28444 q 0,-0.407458 -0.09,-0.73025 -0.09,-0.322791 -0.28046,-0.545041 -0.18521,-0.227542 -0.46567,-0.343959 -0.28046,-0.121708 -0.66146,-0.121708 -0.5715,0 -1.05833,0.301625 -0.48683,0.296333 -0.85725,0.8255 v 3.952875 z"
         style="font-style:normal;font-variant:normal;font-weight:200;font-stretch:normal;font-family:Lato;-inkscape-font-specification:'Lato Ultra-Light';fill:#ffffff;fill-opacity:1;stroke-width:0.26458332"
         id="path4775-7"
         inkscape:connector-curvature="0" />
      <path
         d="m 111.85111,87.321232 q 0.42334,0 0.78846,0.148167 0.37042,0.148166 0.64559,0.439208 0.27516,0.28575 0.42862,0.709083 0.15875,0.423334 0.15875,0.968375 0,0.111125 -0.0952,0.111125 h -3.95287 q -0.005,0.05292 -0.005,0.105834 0,0.05292 0,0.105833 0,0.624416 0.14817,1.100666 0.14817,0.47625 0.41804,0.799042 0.26988,0.322792 0.65088,0.492125 0.38629,0.164042 0.85725,0.164042 0.41804,0 0.72496,-0.08996 0.30691,-0.09525 0.51329,-0.206375 0.20637,-0.111125 0.3175,-0.201083 0.11641,-0.09525 0.14816,-0.09525 0.0423,0 0.0688,0.03175 l 0.0688,0.07937 q -0.10584,0.132292 -0.29634,0.259292 -0.1905,0.127 -0.4392,0.227541 -0.24342,0.09525 -0.53446,0.153459 -0.28575,0.0635 -0.58738,0.0635 -0.53446,0 -0.96837,-0.185209 -0.42863,-0.1905 -0.73554,-0.545041 -0.30163,-0.354542 -0.46567,-0.867834 -0.16404,-0.518583 -0.16404,-1.180041 0,-0.5715 0.15346,-1.042458 0.15875,-0.47625 0.45508,-0.820209 0.29633,-0.343958 0.72496,-0.534458 0.42862,-0.1905 0.97366,-0.1905 z m 0.005,0.211667 q -0.4445,0 -0.79905,0.142875 -0.34925,0.142875 -0.60325,0.402166 -0.254,0.259292 -0.41275,0.624417 -0.15345,0.365125 -0.20108,0.809625 h 3.77825 q 0,-0.470958 -0.13758,-0.836083 -0.13229,-0.370417 -0.37042,-0.624417 -0.23283,-0.254 -0.55562,-0.386292 -0.3228,-0.132291 -0.6985,-0.132291 z"
         style="font-style:normal;font-variant:normal;font-weight:200;font-stretch:normal;font-family:Lato;-inkscape-font-specification:'Lato Ultra-Light';fill:#ffffff;fill-opacity:1;stroke-width:0.26458332"
         id="path4777-2"
         inkscape:connector-curvature="0" />
      <path
         d="m 119.13857,92.623482 q -0.10583,0 -0.11112,-0.105834 l -0.0371,-0.931333 q -0.34925,0.513292 -0.83608,0.809625 -0.48154,0.291042 -1.06362,0.291042 -0.99484,0 -1.5293,-0.656167 -0.53445,-0.656167 -0.53445,-2.005542 0,-0.571499 0.14287,-1.063624 0.14817,-0.492125 0.43392,-0.85725 0.29104,-0.365125 0.71437,-0.5715 0.42863,-0.211667 0.98954,-0.211667 1.09009,0 1.67746,0.85725 v -3.20675 h 0.28046 v 7.65175 z m -1.98967,-0.15875 q 0.55034,0 1.016,-0.301625 0.47096,-0.301625 0.82021,-0.830792 v -2.868083 q -0.32808,-0.508 -0.72496,-0.714375 -0.39687,-0.211667 -0.91016,-0.211667 -0.51329,0 -0.89429,0.1905 -0.381,0.185209 -0.635,0.518584 -0.254,0.333375 -0.381,0.788458 -0.127,0.455083 -0.127,0.989541 0,1.243542 0.46566,1.8415 0.47096,0.597959 1.37054,0.597959 z"
         style="font-style:normal;font-variant:normal;font-weight:200;font-stretch:normal;font-family:Lato;-inkscape-font-specification:'Lato Ultra-Light';fill:#ffffff;fill-opacity:1;stroke-width:0.26458332"
         id="path4779-4"
         inkscape:connector-curvature="0" />
    </g>
  </g>
</svg>
