<?xml version="1.0" encoding="UTF-8" standalone="no"?>
<svg
   xmlns:dc="http://purl.org/dc/elements/1.1/"
   xmlns:cc="http://creativecommons.org/ns#"
   xmlns:rdf="http://www.w3.org/1999/02/22-rdf-syntax-ns#"
   xmlns:svg="http://www.w3.org/2000/svg"
   xmlns="http://www.w3.org/2000/svg"
   xmlns:sodipodi="http://sodipodi.sourceforge.net/DTD/sodipodi-0.dtd"
   xmlns:inkscape="http://www.inkscape.org/namespaces/inkscape"
   viewBox="0 0 150 49.653"
   version="1.1"
   id="svg4535"
   sodipodi:docname="ucla_logo.svg"
   inkscape:version="0.92.1 r15371">
  <metadata
     id="metadata4541">
    <rdf:RDF>
      <cc:Work
         rdf:about="">
        <dc:format>image/svg+xml</dc:format>
        <dc:type
           rdf:resource="http://purl.org/dc/dcmitype/StillImage" />
      </cc:Work>
    </rdf:RDF>
  </metadata>
  <defs
     id="defs4539" />
  <sodipodi:namedview
     pagecolor="#ffffff"
     bordercolor="#666666"
     borderopacity="1"
     objecttolerance="10"
     gridtolerance="10"
     guidetolerance="10"
     inkscape:pageopacity="0"
     inkscape:pageshadow="2"
     inkscape:window-width="3840"
     inkscape:window-height="2160"
     id="namedview4537"
     showgrid="false"
     inkscape:zoom="20.9"
     inkscape:cx="74.37799"
     inkscape:cy="25.44851"
     inkscape:window-x="0"
     inkscape:window-y="-25"
     inkscape:window-maximized="1"
     inkscape:current-layer="svg4535" />
  <path
     fill="#3284bf"
     d="m1.0785 34.736c-0.18245-1.5542-0.0946-3.8179-0.0946-4.9531l2.3718-26.725h8.717l-2.3721 26.961c-0.5068 5.8519 1.7772 9.9941 7.6155 9.9941 5.9262 0 9.0751-4.1895 9.5751-9.3792l2.5137-27.577h8.7575l-2.4191 27.205c-1 10.508-7.933 18.333-19.157 18.333-8.7579 0-14.414-5.649-15.508-13.859m40.638-9.048c1.142-12.819 9.812-23.475 24.725-23.475 3.9666 0 7.7507 0.89873 11.501 3.3516l-1.007 10.602c-3.4192-4.5747-7.5277-5.2775-11.312-5.2775-9.3048 0-14.413 6.46-15.143 14.616-0.68925 8.0074 3.4192 14.467 12.454 14.467 3.926 0 8.075-1.1352 12.454-5.514l-0.95954 10.886c-4.2436 2.311-8.2102 3.3449-12.177 3.3449-14.832 0-21.623-10.987-20.536-23.002m43.248-22.63h8.7102l-3.1962 36.294h12.501c0.91224 0 3.8787-0.04054 4.6964-0.04054-0.0405 0.42571-0.81764 8.3386-0.81764 8.3386h-25.867l3.9733-44.592m47.714-2.0204h-0.63519l-23.901 46.619h9.3048l3.3246-7.0749h16.88l2.1015 7.0749h9.2102l-16.27-46.62m-2.2299 18.664c0.27705-0.61492 0.50005-1.4123 0.63519-1.838h0.14191c0.0405 0.56762 0.13514 1.2298 0.31759 1.8853 0.45274 2.0272 3.8787 13.298 3.8787 13.298h-11.048s5.9329-13.015 6.0748-13.346z"
     id="path4533"
     style="fill:#e6e6e6" />
</svg>
